<svg xmlns="http://www.w3.org/2000/svg" id="iso" viewBox="0 0 47.4 47.4">
    <defs>
        <style>
            .cls-1{fill:#fff}.cls-2{fill:#57dfb7}
        </style>
    </defs>
    <path id="Path_13" d="M19.8 26.1V20c0-1.3.9-1.9 2.1-1.2l1.1.7c1.1.7 3 1.7 4.2 2.4l1.1.7a1.285 1.285 0 0 1 0 2.4l-1.1.7c-1.1.7-3 1.7-4.2 2.4l-1.1.7c-1.1.7-2.1.1-2.1-1.2z" class="cls-1" data-name="Path 13"/>
    <path id="Path_14" d="M9.9 23.7A13.828 13.828 0 0 1 23.7 9.9a13.981 13.981 0 0 1 8.7 3.1 16.2 16.2 0 0 0-13.6-7.1C9.1 5.9.5 13.6 0 22.7v1a23.707 23.707 0 0 0 42.3 14.7 21.262 21.262 0 0 1-13.6 5c-10.5 0-18.5-8.2-18.7-19.2a.749.749 0 0 1-.1-.5z" class="cls-2" data-name="Path 14"/>
    <path id="Path_15" d="M37.5 23.7a13.828 13.828 0 0 1-13.8 13.8 13.981 13.981 0 0 1-8.7-3.1 16.2 16.2 0 0 0 13.6 7.1c9.7 0 18.3-7.7 18.8-16.8v-1A23.686 23.686 0 0 0 23.7 0 23.417 23.417 0 0 0 5.2 9a21.262 21.262 0 0 1 13.6-5c10.5 0 18.5 8.2 18.7 19.2v.5z" class="cls-2" data-name="Path 15"/>
</svg>
