<svg width="235" height="89" viewBox="0 0 235 89" fill="none" xmlns="http://www.w3.org/2000/svg">
<g clip-path="url(#clip0)">
<path d="M64.8049 7.13511C64.7854 6.22268 64.568 5.32303 64.1655 4.48888C63.7629 3.65474 63.1834 2.9029 62.4608 2.27743C61.7382 1.65197 60.8871 1.16548 59.9574 0.846473C59.0276 0.527471 58.038 0.38238 57.0466 0.419709C55.114 0.431804 53.2644 1.1432 51.8978 2.39997C50.5313 3.65674 49.7577 5.35781 49.7446 7.13511V80.5848C49.7641 81.4972 49.9815 82.3968 50.384 83.231C50.7866 84.0651 51.3661 84.817 52.0887 85.4424C52.8113 86.0679 53.6624 86.5544 54.5921 86.8734C55.5218 87.1924 56.5115 87.3375 57.5029 87.3002C59.4355 87.2881 61.2851 86.5767 62.6517 85.3199C64.0182 84.0631 64.7917 82.3621 64.8049 80.5848V7.13511Z" fill="#57DFB7"/>
<path d="M41.3017 2.30842C37.5596 0.801353 33.5212 0.0157118 29.436 0L27.8387 0C0 0.839425 0 26.0222 0 26.0222V81.0045C0.0177485 82.7303 0.725213 84.3899 1.98762 85.667C3.25003 86.9441 4.97915 87.7495 6.84559 87.9297H7.53015C9.52192 87.9138 11.4272 87.1791 12.8357 85.8838C14.2441 84.5885 15.043 82.8363 15.0603 81.0045V42.3909C15.1535 42.1489 15.3042 41.9291 15.5016 41.7476C15.699 41.566 15.9381 41.4273 16.2012 41.3417H28.9797C30.7347 41.3417 32.4179 40.7005 33.6589 39.5592C34.8999 38.4179 35.5971 36.8699 35.5971 35.2558C35.5971 33.6418 34.8999 32.0938 33.6589 30.9525C32.4179 29.8112 30.7347 29.17 28.9797 29.17H16.4294C15.7449 29.17 15.2885 28.5404 15.0603 27.9109V24.763C15.2951 21.355 16.7378 18.1116 19.1677 15.5294C21.9832 13.1985 25.648 11.9252 29.436 11.9618C31.6395 11.9538 33.8188 12.3833 35.8253 13.2209C37.4048 13.8455 39.1846 13.889 40.7979 13.3424C42.4112 12.7958 43.735 11.7007 44.4963 10.283C44.8892 9.59462 45.13 8.84158 45.205 8.06725C45.2799 7.29291 45.1874 6.5126 44.9329 5.77129C44.6783 5.02998 44.2667 4.34234 43.7219 3.748C43.177 3.15367 42.5096 2.66441 41.7581 2.30842C41.5299 2.51827 41.5299 2.30842 41.3017 2.30842Z" fill="#57DFB7"/>
<path d="M104.085 60.17V51.9856C104.085 50.3067 105.454 49.4673 107.051 50.3067L108.649 51.1462C110.246 51.9856 112.984 53.4546 114.81 54.294L116.407 55.1334C116.663 55.2284 116.896 55.3693 117.092 55.5478C117.288 55.7263 117.444 55.9388 117.55 56.1731C117.656 56.4074 117.711 56.6588 117.71 56.9126C117.71 57.1664 117.655 57.4177 117.548 57.6517C117.455 57.8937 117.304 58.1135 117.107 58.2951C116.909 58.4766 116.67 58.6153 116.407 58.701L114.81 59.5404C113.212 60.3798 110.474 61.8488 108.649 62.6882L107.051 63.3178C105.454 64.1572 104.085 63.5277 104.085 61.639V60.17Z" fill="white"/>
<path d="M89.5084 56.892C89.5013 53.3621 90.5841 49.9029 92.6308 46.9167C94.6774 43.9304 97.6038 41.5399 101.07 40.0231C104.536 38.5064 108.398 37.9257 112.209 38.3485C116.02 38.7714 119.621 40.1805 122.595 42.4119C120.349 39.4276 117.347 36.9898 113.849 35.3083C110.352 33.6267 106.462 32.7517 102.515 32.7586C88.3674 32.7586 75.589 43.2514 74.9044 55.6329V56.892C74.9004 63.562 77.1552 70.0675 81.3555 75.505C85.5558 80.9425 91.4931 85.042 98.3428 87.2341C105.192 89.4262 112.614 89.6021 119.578 87.7373C126.541 85.8725 132.7 82.0597 137.199 76.8284C131.579 81.1785 124.465 83.5576 117.119 83.5438C101.602 83.5438 89.9647 72.4214 89.5084 57.5216V56.892Z" fill="#57DFB7"/>
<path d="M130.126 56.892C130.113 61.8421 127.97 66.5863 124.164 70.0865C120.358 73.5868 115.199 75.5581 109.817 75.5692C105.161 75.554 100.651 74.0727 97.0385 71.3721C99.2853 74.3564 102.287 76.7942 105.785 78.4758C109.282 80.1573 113.172 81.0323 117.119 81.0255C131.266 81.0255 144.045 70.5327 144.729 58.1511V56.892C144.733 50.2221 142.479 43.7165 138.278 38.279C134.078 32.8415 128.141 28.742 121.291 26.5499C114.441 24.3578 107.019 24.1819 100.056 26.0467C93.0928 27.9115 86.9338 31.7243 82.4346 36.9557C88.055 32.6055 95.169 30.2264 102.515 30.2403C118.032 30.2403 129.669 41.3627 130.126 56.2624V56.892Z" fill="#57DFB7"/>
<path d="M209.475 63.7963L209.703 63.1667L209.475 64.0061V63.7963Z" fill="#57DFB7"/>
<path d="M230.012 26.232C228.135 25.6299 226.076 25.733 224.282 26.5188C222.487 27.3047 221.103 28.7098 220.428 30.4291L209.931 62.9568C209.931 62.9568 209.703 63.3766 209.475 63.3766C209.247 63.3766 209.019 62.9568 209.019 62.9568L198.522 30.4291C198.03 29.109 197.11 27.9591 195.886 27.1338C194.663 26.3085 193.194 25.8473 191.677 25.8123C190.078 25.7416 188.498 26.1549 187.179 26.9888C185.86 27.8226 184.875 29.0311 184.375 30.4291L173.878 62.9568C173.878 62.9568 173.65 63.3766 173.422 63.3766C173.193 63.3766 172.965 62.9568 172.965 62.9568L162.469 30.4291C161.803 28.7038 160.419 27.2923 158.622 26.5051C156.825 25.718 154.761 25.6198 152.885 26.232C151.009 26.8442 149.474 28.1168 148.618 29.7697C147.762 31.4227 147.655 33.3206 148.321 35.046L166.348 82.4735C166.864 83.8209 167.821 84.9882 169.087 85.815C170.354 86.6417 171.868 87.0872 173.422 87.0903C174.971 87.0731 176.478 86.6221 177.742 85.7973C179.006 84.9724 179.966 83.813 180.495 82.4735L191.448 48.6866L202.401 82.4735C202.96 83.795 203.928 84.9367 205.185 85.7573C206.443 86.5779 207.934 87.0414 209.475 87.0903C211.028 87.0872 212.542 86.6417 213.809 85.815C215.076 84.9882 216.033 83.8209 216.549 82.4735L234.576 35.046C234.912 34.1921 235.06 33.2852 235.013 32.3781C234.965 31.471 234.722 30.5816 234.297 29.7617C233.872 28.9417 233.275 28.2074 232.539 27.6015C231.804 26.9956 230.945 26.5301 230.012 26.232Z" fill="#57DFB7"/>
</g>
<defs>
<clipPath id="clip0">
<rect width="235" height="89" fill="white"/>
</clipPath>
</defs>
</svg>
